<svg xmlns="http://www.w3.org/2000/svg" width="18" height="18" fill="none" overflow="visible"><path d="M 0 8 C 0 4.229 0 2.343 1.172 1.172 C 2.344 0.001 4.229 0 8 0 L 10 0 C 13.771 0 15.657 0 16.828 1.172 C 17.999 2.344 18 4.229 18 8 L 18 10 C 18 13.771 18 15.657 16.828 16.828 C 15.656 17.999 13.771 18 10 18 L 8 18 C 4.229 18 2.343 18 1.172 16.828 C 0.001 15.656 0 13.771 0 10 Z M 15 4.5 C 15 3.672 14.328 3 13.5 3 C 12.672 3 12 3.672 12 4.5 C 12 5.328 12.672 6 13.5 6 C 14.328 6 15 5.328 15 4.5 Z M 9 12 C 7.895 12 7 11.105 7 10 C 7 8.895 7.895 8 9 8 C 10.105 8 11 8.895 11 10 C 11 11.105 10.105 12 9 12 Z M 13 10 C 13 7.791 11.209 6 9 6 C 6.791 6 5 7.791 5 10 C 5 12.209 6.791 14 9 14 C 11.209 14 13 12.209 13 10 Z" fill="rgba(255, 255, 255, 0.85)"></path></svg>