<svg xmlns="http://www.w3.org/2000/svg" width="20" height="14" fill="none" overflow="visible"><g><path d="M 1.429 0 L 8.571 0 C 9.36 0 10 0.627 10 1.4 C 10 2.173 9.36 2.8 8.571 2.8 L 1.429 2.8 C 0.64 2.8 0 2.173 0 1.4 C 0 0.627 0.64 0 1.429 0 M 11.429 11.2 L 18.571 11.2 C 19.36 11.2 20 11.827 20 12.6 C 20 13.373 19.36 14 18.571 14 L 11.429 14 C 10.64 14 10 13.373 10 12.6 C 10 11.827 10.64 11.2 11.429 11.2 M 1.429 5.6 L 18.571 5.6 C 19.36 5.6 20 6.227 20 7 C 20 7.773 19.36 8.4 18.571 8.4 L 1.429 8.4 C 0.64 8.4 0 7.773 0 7 C 0 6.227 0.64 5.6 1.429 5.6" fill="rgb(255, 255, 255)"></path></g></svg>