<svg xmlns="http://www.w3.org/2000/svg" width="19.549" height="16.2" fill="none" overflow="visible"><path d="M 1.345 6.974 C 6.591 4.688 10.09 3.181 11.842 2.452 C 16.841 0.373 17.879 0.012 18.556 0 C 18.706 -0.003 19.038 0.034 19.254 0.21 C 19.436 0.357 19.486 0.557 19.51 0.697 C 19.534 0.837 19.564 1.156 19.54 1.405 C 19.27 4.252 18.097 11.159 17.5 14.347 C 17.248 15.695 16.752 16.147 16.27 16.192 C 15.225 16.288 14.432 15.502 13.42 14.838 C 11.835 13.799 10.94 13.152 9.402 12.139 C 7.625 10.968 8.777 10.324 9.79 9.272 C 10.055 8.997 14.66 4.808 14.75 4.428 C 14.76 4.38 14.771 4.203 14.666 4.11 C 14.561 4.016 14.406 4.048 14.293 4.074 C 14.133 4.11 11.603 5.783 6.701 9.092 C 5.981 9.585 5.331 9.826 4.749 9.813 C 4.106 9.799 2.869 9.45 1.951 9.151 C 0.823 8.784 -0.073 8.591 0.005 7.968 C 0.045 7.644 0.492 7.313 1.345 6.974" fill="rgba(255, 255, 255, 0.85)"></path></svg>