<svg xmlns="http://www.w3.org/2000/svg" width="22" height="16" fill="none" overflow="visible"><path d="M 8.8 11.429 L 14.509 8 L 8.8 4.571 Z M 21.516 2.48 C 21.659 3.017 21.758 3.737 21.824 4.651 C 21.901 5.566 21.934 6.354 21.934 7.04 L 22 8 C 22 10.503 21.824 12.343 21.516 13.52 C 21.241 14.549 20.603 15.211 19.613 15.497 C 19.096 15.646 18.15 15.749 16.698 15.817 C 15.268 15.897 13.959 15.931 12.749 15.931 L 11 16 C 6.391 16 3.52 15.817 2.387 15.497 C 1.397 15.211 0.759 14.549 0.484 13.52 C 0.341 12.983 0.242 12.263 0.176 11.349 C 0.099 10.434 0.066 9.646 0.066 8.96 L 0 8 C 0 5.497 0.176 3.657 0.484 2.48 C 0.759 1.451 1.397 0.789 2.387 0.503 C 2.904 0.354 3.85 0.251 5.302 0.183 C 6.732 0.103 8.041 0.069 9.251 0.069 L 11 0 C 15.609 0 18.48 0.183 19.613 0.503 C 20.603 0.789 21.241 1.451 21.516 2.48" fill="rgb(255, 255, 255)"></path></svg>