<svg xmlns="http://www.w3.org/2000/svg" width="183" height="62" fill="none" overflow="visible"><path d="M 65.678 2.554 L 45.662 2.554 C 40.188 2.554 35.116 3.014 30.803 5.071 C 24.235 8.204 16.679 11.36 12.203 15.737 C 6.728 21.09 3.162 26.83 0.778 32.95 C -0.768 36.917 0.071 41.551 2.576 45.272 C 4.579 48.247 8.528 50.69 12.203 52.924 C 21.325 58.468 33.088 59.968 45.407 61.183 C 53.501 61.98 62.075 61.978 70.256 61.978 C 78.756 61.978 87.338 62.185 95.758 61.337 C 104.159 60.492 112.532 59.589 120.934 58.754 C 125.73 58.277 129.952 57.735 134.375 56.391 C 142.902 53.799 151.866 52.066 160.513 49.766 C 161.579 49.483 163.256 49.532 164.092 48.96 C 164.923 48.392 166.538 47.928 167.561 47.47 C 170.845 45.999 174.185 44.304 176.589 42.302 C 179.469 39.903 181.612 37.027 182.655 34.11 C 183.891 30.656 181.594 27.294 179.132 24.217 C 177.455 22.121 174.906 20.796 172.193 19.204 C 169.165 17.427 166.624 15.546 162.784 14.379 C 159.58 13.405 156.936 11.756 153.483 11 C 148.782 9.972 144.538 8.18 139.897 7.025 C 135.842 6.017 132.185 4.591 128.29 3.459 C 124.216 2.275 120.46 1.431 116.029 0.809 C 99.636 -1.49 83.253 1.626 67.476 3.757 C 65.629 4.007 63.923 4.541 61.936 4.541 L 56.523 4.541 C 54.885 4.541 53.34 4.518 51.783 4.729 C 50.972 4.839 47.452 5.238 47.042 4.74" fill="hsl(0, 0%, 100%)" stroke-width="2" stroke="rgb(255,255,255)" stroke-linecap="round" stroke-miterlimit="10"></path></svg>