<svg xmlns="http://www.w3.org/2000/svg" width="188" height="59" fill="none" overflow="visible"><path d="M 45.259 3.087 C 49.318 3.087 53.593 3.314 57.565 2.853 C 65.515 1.93 73.418 1.255 81.44 0.547 C 90.844 -0.284 100.657 0.079 110.172 0.079 C 120.821 0.079 132.777 1.279 142.114 4.224 C 151.932 7.32 163.913 9.294 171.082 14.585 C 173.175 16.129 177.066 17.532 179.737 18.796 C 181.916 19.827 183.629 21.199 184.889 22.773 C 186.538 24.832 186.742 27.315 187.391 29.524 C 188.432 33.069 188.088 36.952 186.743 40.387 C 184.299 46.631 171.121 50.419 161.691 52.385 C 142.567 56.373 121.486 56.866 101.489 58.285 C 83.429 59.566 64.523 58.735 46.319 58.735 C 34.406 58.735 22.236 57.447 12.524 53.455 C 3.34 49.68 0.747 42.813 0.747 36.627 C 0.747 33.017 -0.611 29.277 0.335 25.647 C 1.187 22.388 2.866 19.349 5.252 16.339 C 8.96 11.662 16.558 7.036 24.181 4.357 C 29.275 2.567 33.761 0.981 39.961 0.981 C 48.296 0.981 56.452 1.282 64.866 1.282" fill="hsl(0, 0%, 100%)" stroke-width="2" stroke="rgb(255,255,255)" stroke-linecap="round" stroke-miterlimit="10"></path></svg>