<svg xmlns="http://www.w3.org/2000/svg" width="191" height="62" fill="none"><path d="M 46.753 5.013 C 50.811 5.013 55.086 5.24 59.058 4.779 C 67.008 3.856 74.911 3.181 82.933 2.472 C 92.337 1.642 102.15 2.005 111.666 2.005 C 122.314 2.005 134.27 3.205 143.607 6.15 C 153.426 9.246 165.407 11.219 172.576 16.51 C 174.668 18.055 178.559 19.458 181.23 20.722 C 183.409 21.753 185.122 23.125 186.383 24.699 C 188.031 26.757 188.236 29.241 188.884 31.45 C 189.925 34.995 189.582 38.878 188.237 42.313 C 185.792 48.557 172.614 52.345 163.184 54.311 C 144.06 58.299 122.979 58.791 102.982 60.211 C 84.923 61.491 66.016 60.661 47.813 60.661 C 35.9 60.661 23.73 59.373 14.017 55.381 C 4.834 51.606 2.241 44.739 2.241 38.553 C 2.241 34.943 0.882 31.202 1.828 27.573 C 2.68 24.313 4.359 21.275 6.745 18.265 C 10.453 13.587 18.051 8.962 25.674 6.283 C 30.769 4.493 35.255 2.907 41.454 2.907 C 49.789 2.907 57.945 3.208 66.359 3.208" fill="transparent" stroke-width="2" stroke="rgb(255,255,255)" stroke-linecap="round" stroke-miterlimit="10"></path></svg>