<svg xmlns="http://www.w3.org/2000/svg" width="186" height="65" fill="none"><path d="M 67.475 4.343 L 47.459 4.343 C 41.985 4.343 36.913 4.804 32.6 6.861 C 26.032 9.994 18.477 13.15 14 17.527 C 8.525 22.88 4.959 28.62 2.575 34.74 C 1.03 38.707 1.868 43.34 4.373 47.062 C 6.376 50.037 10.325 52.48 14 54.714 C 23.122 60.258 34.886 61.758 47.204 62.972 C 55.298 63.77 63.872 63.767 72.053 63.767 C 80.553 63.767 89.135 63.975 97.555 63.127 C 105.956 62.282 114.329 61.379 122.731 60.543 C 127.527 60.067 131.749 59.525 136.172 58.181 C 144.699 55.589 153.663 53.856 162.31 51.556 C 163.376 51.272 165.053 51.321 165.889 50.75 C 166.72 50.182 168.335 49.718 169.358 49.259 C 172.642 47.789 175.982 46.094 178.386 44.092 C 181.266 41.693 183.409 38.817 184.452 35.9 C 185.688 32.446 183.392 29.084 180.929 26.007 C 179.252 23.911 176.703 22.586 173.99 20.994 C 170.962 19.217 168.421 17.336 164.581 16.169 C 161.377 15.195 158.733 13.546 155.281 12.79 C 150.579 11.761 146.335 9.97 141.694 8.815 C 137.639 7.807 133.982 6.381 130.088 5.249 C 126.013 4.065 122.257 3.221 117.826 2.599 C 101.433 0.3 85.05 3.416 69.273 5.547 C 67.426 5.797 65.72 6.331 63.733 6.331 L 58.32 6.331 C 56.682 6.331 55.138 6.308 53.58 6.519 C 52.769 6.629 49.249 7.028 48.839 6.53" fill="transparent" stroke-width="2" stroke="rgb(255,255,255)" stroke-linecap="round" stroke-miterlimit="10"></path><path d="M 104.637 33.883 C 105.111 33.966 109.034 33.705 109.637 33.705" fill="transparent" stroke-width="4" stroke="hsl(0, 0%, 100%)" stroke-linecap="round" stroke-linejoin="round"></path></svg>